<svg xmlns="http://www.w3.org/2000/svg" viewBox="0 0 64 64" width="64" height="64" role="img" aria-label="ASD Helper Guide">
  <rect width="64" height="64" rx="18" fill="#2e7a48"></rect>
  <g transform="translate(32,32)">
    <g fill="#f6c544">
      <ellipse cx="0" cy="-16" rx="4.2" ry="9.4"></ellipse>
      <ellipse cx="0" cy="-16" rx="4.2" ry="9.4" transform="rotate(36)"></ellipse>
      <ellipse cx="0" cy="-16" rx="4.2" ry="9.4" transform="rotate(72)"></ellipse>
      <ellipse cx="0" cy="-16" rx="4.2" ry="9.4" transform="rotate(108)"></ellipse>
      <ellipse cx="0" cy="-16" rx="4.2" ry="9.4" transform="rotate(144)"></ellipse>
      <ellipse cx="0" cy="-16" rx="4.2" ry="9.4" transform="rotate(180)"></ellipse>
      <ellipse cx="0" cy="-16" rx="4.2" ry="9.4" transform="rotate(216)"></ellipse>
      <ellipse cx="0" cy="-16" rx="4.2" ry="9.4" transform="rotate(252)"></ellipse>
      <ellipse cx="0" cy="-16" rx="4.2" ry="9.4" transform="rotate(288)"></ellipse>
      <ellipse cx="0" cy="-16" rx="4.2" ry="9.4" transform="rotate(324)"></ellipse>
    </g>
    <circle cx="0" cy="0" r="8.5" fill="#7a4f08"></circle>
    <circle cx="0" cy="0" r="4" fill="#cf930f"></circle>
  </g>
</svg>