<svg xmlns="http://www.w3.org/2000/svg" viewBox="0 0 372 88" width="372" height="88" role="img" aria-label="ASD Helper Guide">
  <rect x="12" y="12" width="64" height="64" rx="18" fill="#2e7a48"></rect>
  <g transform="translate(44,44)">
    <g fill="#f6c544">
      <ellipse cx="0" cy="-16" rx="4.2" ry="9.4"></ellipse>
      <ellipse cx="0" cy="-16" rx="4.2" ry="9.4" transform="rotate(36)"></ellipse>
      <ellipse cx="0" cy="-16" rx="4.2" ry="9.4" transform="rotate(72)"></ellipse>
      <ellipse cx="0" cy="-16" rx="4.2" ry="9.4" transform="rotate(108)"></ellipse>
      <ellipse cx="0" cy="-16" rx="4.2" ry="9.4" transform="rotate(144)"></ellipse>
      <ellipse cx="0" cy="-16" rx="4.2" ry="9.4" transform="rotate(180)"></ellipse>
      <ellipse cx="0" cy="-16" rx="4.2" ry="9.4" transform="rotate(216)"></ellipse>
      <ellipse cx="0" cy="-16" rx="4.2" ry="9.4" transform="rotate(252)"></ellipse>
      <ellipse cx="0" cy="-16" rx="4.2" ry="9.4" transform="rotate(288)"></ellipse>
      <ellipse cx="0" cy="-16" rx="4.2" ry="9.4" transform="rotate(324)"></ellipse>
    </g>
    <circle cx="0" cy="0" r="8.5" fill="#7a4f08"></circle>
    <circle cx="0" cy="0" r="4" fill="#cf930f"></circle>
  </g>
  <text x="92" y="38" font-family="&#39;Hanken Grotesk&#39;, system-ui, sans-serif" font-size="12" font-weight="700" letter-spacing="1.6" fill="#2e7a48">SUNFLOWER SUPPORT</text>
  <text x="91" y="66" font-family="&#39;Hanken Grotesk&#39;, system-ui, sans-serif" font-size="29" font-weight="800" letter-spacing="-0.5" fill="#1d5532">ASD Helper Guide</text>
</svg>