<!-- Placeholder/generated artwork for ASD Helper Guide. Replace with final brand artwork later. -->
<svg width="96" height="96" viewBox="0 0 96 96" fill="none" xmlns="http://www.w3.org/2000/svg" role="img" aria-labelledby="title desc">
  <title id="title">ASD Helper Guide icon</title>
  <desc id="desc">Rounded speech bubble with parent and child figures and a small orange heart.</desc>
  <rect width="96" height="96" rx="22" fill="#F8FBF8"/>
  <path d="M16 20C16 12.268 22.268 6 30 6H68C75.732 6 82 12.268 82 20V56C82 63.732 75.732 70 68 70H50L32 84V70H30C22.268 70 16 63.732 16 56V20Z" fill="#DCECF8" stroke="#7AAED6" stroke-width="5" stroke-linejoin="round"/>
  <circle cx="39" cy="36" r="8" fill="#2F6F9E"/>
  <path d="M26 62C27.7 52 32.2 46 39 46C45.8 46 50.3 52 52 62" stroke="#2F6F9E" stroke-width="8" stroke-linecap="round"/>
  <circle cx="59" cy="42" r="6" fill="#4D89B8"/>
  <path d="M50 62C51.2 55.8 54.2 52 59 52C63.8 52 66.8 55.8 68 62" stroke="#4D89B8" stroke-width="7" stroke-linecap="round"/>
  <path d="M62 24.4C59.4 21.1 54 22.7 54 27.1C54 31.9 62 36.4 62 36.4C62 36.4 70 31.9 70 27.1C70 22.7 64.6 21.1 62 24.4Z" fill="#E9904A"/>
</svg>
