<!-- Placeholder/generated artwork for ASD Helper Guide. Replace with final brand artwork later. -->
<svg width="320" height="96" viewBox="0 0 320 96" fill="none" xmlns="http://www.w3.org/2000/svg" role="img" aria-labelledby="title desc">
  <title id="title">ASD Helper Guide logo</title>
  <desc id="desc">Rounded speech bubble with parent and child figures, a small heart, and the text ASD Helper Guide.</desc>
  <rect width="320" height="96" rx="24" fill="#F8FBF8"/>
  <path d="M28 24C28 15.1634 35.1634 8 44 8H100C108.837 8 116 15.1634 116 24V58C116 66.8366 108.837 74 100 74H72L52 88V74H44C35.1634 74 28 66.8366 28 58V24Z" fill="#DCECF8" stroke="#7AAED6" stroke-width="4" stroke-linejoin="round"/>
  <circle cx="61" cy="38" r="9" fill="#2F6F9E"/>
  <path d="M45 66C46.7 55.6 52.2 49 61 49C69.8 49 75.3 55.6 77 66" stroke="#2F6F9E" stroke-width="8" stroke-linecap="round"/>
  <circle cx="86" cy="44" r="7" fill="#4D89B8"/>
  <path d="M75 66C76.5 58.8 80.3 54 86 54C91.7 54 95.5 58.8 97 66" stroke="#4D89B8" stroke-width="7" stroke-linecap="round"/>
  <path d="M91.5 27.8C88.4 23.9 82 25.8 82 31C82 36.7 91.5 42 91.5 42C91.5 42 101 36.7 101 31C101 25.8 94.6 23.9 91.5 27.8Z" fill="#E9904A"/>
  <text x="136" y="43" fill="#183247" font-family="Inter, ui-sans-serif, system-ui, sans-serif" font-size="25" font-weight="750" letter-spacing="0">ASD Helper</text>
  <text x="136" y="69" fill="#34566E" font-family="Inter, ui-sans-serif, system-ui, sans-serif" font-size="25" font-weight="750" letter-spacing="0">Guide</text>
</svg>
